<svg id="Layer_1" data-name="Layer 1" xmlns="http://www.w3.org/2000/svg" viewBox="0 0 200 200"><defs><style>.cls-1{fill:#231f20;}</style></defs><title>Wondicon - UI (Free)</title><path class="cls-1" d="M82.28,140.5A5,5,0,0,1,78.75,132l32.18-32.19L78.75,67.59a5,5,0,0,1,7.07-7.07l35.72,35.73a5,5,0,0,1,0,7.07L85.82,139A5,5,0,0,1,82.28,140.5Z"/><path class="cls-1" d="M154.15,175.69H45.85a21.57,21.57,0,0,1-21.54-21.54V45.85A21.57,21.57,0,0,1,45.85,24.31h108.3a21.57,21.57,0,0,1,21.54,21.54v108.3A21.57,21.57,0,0,1,154.15,175.69ZM45.85,34.31A11.56,11.56,0,0,0,34.31,45.85v108.3a11.56,11.56,0,0,0,11.54,11.54h108.3a11.56,11.56,0,0,0,11.54-11.54V45.85a11.56,11.56,0,0,0-11.54-11.54Z"/></svg>