<svg id="Layer_1" data-name="Layer 1" xmlns="http://www.w3.org/2000/svg" viewBox="0 0 200 200"><defs><style>.cls-1{fill:#231f20;}</style></defs><title>Wondicon - UI (Free)</title><path class="cls-1" d="M117.86,140.5a5,5,0,0,1-3.53-1.46L78.6,103.32a5,5,0,0,1,0-7.07l35.73-35.73a5,5,0,1,1,7.07,7.07L89.21,99.78,121.4,132a5,5,0,0,1-3.54,8.53Z"/><path class="cls-1" d="M154.29,175.69H46a21.57,21.57,0,0,1-21.54-21.54V45.85A21.57,21.57,0,0,1,46,24.31H154.29a21.57,21.57,0,0,1,21.54,21.54v108.3A21.57,21.57,0,0,1,154.29,175.69ZM46,34.31A11.55,11.55,0,0,0,34.46,45.85v108.3A11.55,11.55,0,0,0,46,165.69H154.29a11.55,11.55,0,0,0,11.54-11.54V45.85a11.55,11.55,0,0,0-11.54-11.54Z"/></svg>